<svg width="22" height="22" viewBox="0 0 22 22" fill="none" xmlns="http://www.w3.org/2000/svg">
  <path d="M17 11C17 14.3137 14.3137 17 11 17C7.68629 17 4.99999 14.3137 4.99999 11C4.99999 7.6863 7.68629 5 11 5C14.3137 5 17 7.6863 17 11Z" fill="black"/>
  <path fill-rule="evenodd" clip-rule="evenodd" d="M22 11C22 17.0751 17.0751 22 11 22C4.92487 22 0 17.0751 0 11C0 4.92487 4.92487 0 11 0C17.0751 0 22 4.92487 22 11ZM20 11C20 15.9706 15.9706 20 11 20C6.02944 20 2 15.9706 2 11C2 6.02944 6.02944 2 11 2C15.9706 2 20 6.02944 20 11Z" fill="black"/>
</svg>
